<svg xmlns="http://www.w3.org/2000/svg" version="1.0" width="512.000000pt" height="512.000000pt" viewBox="0 0 512.000000 512.000000" preserveAspectRatio="xMidYMid meet">

<g transform="translate(0.000000,512.000000) scale(0.100000,-0.100000)" fill="#ffffff" stroke="none">
<path d="M2389 5000 c-393 -67 -716 -343 -841 -720 -52 -154 -53 -174 -53 -920 0 -746 1 -766 53 -920 76 -230 227 -425 429 -557 106 -69 190 -107 311 -141 88 -24 113 -27 272 -27 151 0 186 3 260 23 437 119 744 471 799 917 15 122 15 1288 0 1410 -58 473 -408 848 -869 931 -80 14 -286 17 -361 4z" fill="#ffffff"/>
<path d="M917 2337 c-105 -34 -169 -143 -146 -247 13 -57 86 -212 146 -310 296 -480 775 -805 1323 -899 l105 -18 5 -359 c5 -392 5 -387 67 -446 80 -76 206 -76 286 0 62 59 62 54 67 446 l5 359 100 17 c553 94 1022 410 1322 890 56 91 118 215 143 290 18 55 20 69 9 118 -22 110 -140 188 -248 163 -86 -19 -117 -50 -181 -184 -78 -162 -165 -291 -275 -406 -176 -184 -373 -312 -600 -389 -173 -59 -280 -76 -485 -76 -154 0 -202 4 -290 23 -309 66 -544 194 -765 416 -138 137 -206 234 -303 427 -60 120 -71 136 -112 160 -54 32 -121 42 -173 25z" fill="#ffffff"/>
</g>
</svg>